<?xml version="1.0" encoding="utf-8"?>
<!-- Generator: Adobe Illustrator 19.1.0, SVG Export Plug-In . SVG Version: 6.00 Build 0)  -->
<svg version="1.1" id="Ebene_1" xmlns="http://www.w3.org/2000/svg" xmlns:xlink="http://www.w3.org/1999/xlink" x="0px" y="0px"
	 viewBox="0 0 1606 500" style="enable-background:new 0 0 1606 500;" xml:space="preserve">
<style type="text/css">
	.st0{fill:#4A8AF9;}
	.st1{fill:#FFFFFF;}
</style>
<rect x="0.5" y="0" class="st0" width="1605.5" height="500"/>
<g>
	<rect x="224.2" y="246.4" class="st1" width="5.4" height="4.1"/>
	<g>
		<path class="st1" d="M161.8,259.3c0-37.2,23.7-69,56.8-81l0.7-9.7c-38.5,12.2-66.4,48.3-66.4,90.8c0,39.1,23.7,72.7,57.4,87.4
			v-9.9C181.6,322.7,161.8,293.3,161.8,259.3z"/>
		<path class="st1" d="M280.9,169.9l0.7,9.9c30.9,13.1,52.7,43.8,52.7,79.4c0,32.4-18,60.6-44.4,75.4v10.2
			c31.6-15.5,53.4-48,53.4-85.5C343.2,218.3,317.2,183.3,280.9,169.9z"/>
	</g>
	<path class="st1" d="M310.4,259.9c0-24.9-15.1-46.3-36.6-55.6l-3.1-60.9h-7.5v-12.1l-6.3-4l-2.3-107.5h-9.4l-2.3,107.7l-6.1,3.8
		v12.1h-6.9l-3.7,60.8c-21.6,9.2-36.8,30.7-36.8,55.7c0,27.6,18.4,50.8,43.6,58.1l-0.5,10.3h-13.9v31.9h12.2l-7.3,135l53.5,0.2
		l-7.6-135.1h12v-31.9h-13.9L267,318C292.1,310.6,310.4,287.4,310.4,259.9z"/>
	<g>
		<path class="st1" d="M20.9,258.5c0-121.6,95.3-221.4,215.1-228.6l0.5-9.6c-125.4,7-225.2,111.2-225.2,238.2
			c0,119.2,87.9,218.3,202.3,235.9l0.7-9.6C104.8,467.6,20.9,372.7,20.9,258.5z"/>
		<path class="st1" d="M440.4,115c4.8-5.8,7.7-13.2,7.7-21.3c0-18.4-15-33.4-33.4-33.4c-8.1,0-15.5,2.9-21.3,7.7
			c-36.6-27.6-81.3-45-129.9-47.7l0.5,9.6c45.9,2.8,88.3,19.2,123,45.2c-3.6,5.3-5.7,11.7-5.7,18.6c0,18.4,15,33.4,33.4,33.4
			c6.9,0,13.3-2.1,18.6-5.7C462,159.7,479,207.1,479,258.5c0,114.2-84,209.1-193.4,226.3l0.8,9.6
			c114.4-17.6,202.3-116.6,202.3-235.9C488.6,204.7,470.6,155,440.4,115z"/>
	</g>
</g>
<rect x="541.2" y="214.2" class="st1" width="6" height="113.7"/>
<path class="st1" d="M632.6,211.4c-34.1,0-59.9,25.7-59.9,59.6c0,34.1,25.7,59.6,59.9,59.6s59.9-25.5,59.9-59.6
	C692.5,237.1,666.8,211.4,632.6,211.4z M632.6,325.1c-30.7,0-53.9-23.2-53.9-54.1S602,217,632.6,217c30.7,0,53.9,23.2,53.9,54.1
	S663.3,325.1,632.6,325.1z"/>
<path class="st1" d="M806,222.8c-12.9-10.5-28.3-11.4-36.3-11.4c-18,0-38,8.4-45.1,24.7h-0.4v-21.9h-6v113.7h6v-65.4
	c0-28.5,17.6-45.5,46.1-45.5c17.2,0,26.4,5.6,32.2,10.7c8.6,7.7,13.9,20.4,13.9,40.1v60.1h6v-60.1
	C822.5,247.4,817.2,232.2,806,222.8z"/>
<rect x="855.8" y="214.2" class="st1" width="6" height="113.7"/>
<path class="st1" d="M947.2,325.1c-29,0-53.9-21.9-53.9-54.1c0-15.4,6.4-30.5,15.7-38.8c11.8-10.5,22.3-15.2,38.4-15.2
	c22.3,0,42.1,12.4,49.8,34.1h6.7c-9-26.8-33.5-39.7-56.6-39.7c-34.5,0-59.9,26.2-59.9,59.9c0,35.4,26.8,59.4,59.9,59.4
	c27,0,48.5-15.4,56.4-38.6H997C991.4,309,972.9,325.1,947.2,325.1z"/>
<circle class="st1" cx="544.3" cy="178.9" r="6.5"/>
<circle class="st1" cx="858.8" cy="178.9" r="6.5"/>
<g>
	<path class="st1" d="M1070.1,183h44.5c5.6,0,11.3,0.6,17.1,1.8c5.8,1.2,10.9,3.2,15.5,6.1c4.6,2.9,8.3,6.8,11.2,11.7
		c2.9,4.9,4.3,11.1,4.3,18.6c0,7.9-2.4,14.7-7.2,20.6c-4.8,5.8-11.2,9.7-19.3,11.5v0.4c9.7,1.1,17.7,4.9,24.1,11.3
		c6.4,6.4,9.6,15.1,9.6,26.1c0,6.2-1.3,11.9-3.9,17c-2.6,5.1-6.3,9.5-11.1,13.1c-4.8,3.6-10.6,6.4-17.5,8.3c-6.9,2-14.6,3-23.2,3
		h-44.2V183z M1085.2,248.4h30.6c3.7,0,7.3-0.4,11.1-1.3c3.7-0.8,7.1-2.3,10.2-4.3c3.1-2,5.6-4.7,7.5-8.1c1.9-3.4,2.8-7.5,2.8-12.4
		c0-4.8-1-8.8-2.8-12.1c-1.9-3.3-4.5-6-7.7-8.1c-3.2-2.1-7-3.6-11.4-4.5c-4.4-0.9-9-1.4-13.9-1.4h-26.4V248.4z M1085.2,319.3h28.3
		c5.5,0,10.7-0.5,15.7-1.6c5-1.1,9.4-2.7,13.1-5.1c3.7-2.3,6.7-5.3,9-9.1c2.2-3.7,3.4-8.2,3.4-13.4c0-9.8-3.3-17.2-10-22
		c-6.7-4.9-16.1-7.3-28.4-7.3h-31V319.3z"/>
	<path class="st1" d="M1293.3,280.1c0,1,0,2,0,3.2c0,1.1-0.1,2.3-0.2,3.6h-81.9c0.1,4.9,1.1,9.6,3,13.9c1.8,4.4,4.4,8.2,7.6,11.4
		c3.2,3.2,7,5.8,11.4,7.7c4.4,1.9,9.1,2.8,14.1,2.8c7.5,0,13.9-1.7,19.3-5.2c5.4-3.4,9.5-7.4,12.3-11.9l10.8,8.4
		c-5.9,7.5-12.4,12.8-19.5,16c-7.1,3.2-14.7,4.9-22.9,4.9c-7.3,0-14.1-1.3-20.4-3.9c-6.3-2.6-11.6-6.2-16.1-10.9
		c-4.5-4.6-8.1-10.1-10.7-16.5c-2.6-6.3-3.9-13.2-3.9-20.7c0-7.5,1.3-14.3,3.8-20.7c2.5-6.3,6-11.8,10.5-16.5
		c4.5-4.6,9.8-8.3,15.8-10.9c6-2.6,12.6-3.9,19.6-3.9c7.7,0,14.6,1.3,20.5,3.9c5.9,2.6,10.8,6.1,14.8,10.6c3.9,4.4,6.9,9.6,9,15.5
		C1292.3,267,1293.3,273.3,1293.3,280.1z M1278.7,275.4c-0.4-9.3-3.4-17-9-23.1c-5.6-6.1-13.5-9.2-23.7-9.2c-4.8,0-9.2,0.9-13.3,2.6
		c-4.1,1.8-7.7,4.2-10.8,7.2c-3.1,3-5.6,6.5-7.4,10.3c-1.8,3.9-2.9,7.9-3.2,12.1H1278.7z"/>
	<path class="st1" d="M1323.9,245c-0.1-4.2-0.4-8-0.6-11.4h13.7c0.3,2.7,0.5,5.6,0.6,8.9c0.1,3.2,0.2,5.9,0.2,8h0.4
		c2.8-5.8,7-10.4,12.7-14c5.6-3.6,12-5.4,19-5.4c1.8,0,3.5,0.1,5,0.2c1.5,0.1,3,0.4,4.5,0.8l-1.9,13.7c-0.8-0.3-2.3-0.6-4.2-0.8
		c-2-0.3-3.9-0.4-5.9-0.4c-3.8,0-7.5,0.7-11,2.1c-3.5,1.4-6.6,3.6-9.2,6.6c-2.6,3-4.7,6.9-6.3,11.6c-1.6,4.7-2.4,10.4-2.4,16.9v50.5
		h-14.3v-77C1324.1,252.7,1324,249.2,1323.9,245z"/>
	<path class="st1" d="M1414.8,332.4h-14.3V172.9h14.3V332.4z"/>
	<path class="st1" d="M1470.7,195.7c0,3-1.1,5.4-3.2,7.3c-2.1,1.9-4.4,2.8-7,2.8s-4.9-1-7-2.8c-2.1-1.9-3.2-4.3-3.2-7.3
		c0-3,1.1-5.4,3.2-7.3c2.1-1.9,4.4-2.8,7-2.8s4.9,1,7,2.8C1469.7,190.3,1470.7,192.7,1470.7,195.7z M1467.8,332.4h-14.3v-98.7h14.3
		V332.4z"/>
	<path class="st1" d="M1518.8,233.6c0.3,2.7,0.5,5.6,0.6,8.9c0.1,3.2,0.2,5.9,0.2,8h0.4c2.8-5.8,7.4-10.4,13.7-14s13-5.4,20-5.4
		c12.5,0,21.9,3.7,28.2,11.2c6.3,7.5,9.4,17.3,9.4,29.5v60.6h-14.3v-54.6c0-5.2-0.4-9.9-1.3-14.1s-2.3-7.8-4.3-10.9
		c-2-3-4.8-5.4-8.2-7.1c-3.4-1.7-7.8-2.5-13-2.5c-3.8,0-7.5,0.8-11.1,2.3c-3.6,1.5-6.8,3.9-9.6,7.1c-2.8,3.2-5.1,7.2-6.8,12
		c-1.7,4.9-2.5,10.6-2.5,17.2v50.6H1506v-77c0-2.7-0.1-6.1-0.2-10.3c-0.1-4.2-0.4-8-0.6-11.4H1518.8z"/>
</g>
</svg>
