<?xml version="1.0" encoding="utf-8"?>
<!-- Generator: Adobe Illustrator 19.1.0, SVG Export Plug-In . SVG Version: 6.00 Build 0)  -->
<svg version="1.1" id="Ebene_1" xmlns="http://www.w3.org/2000/svg" xmlns:xlink="http://www.w3.org/1999/xlink" x="0px" y="0px"
	 viewBox="0 0 1606 500" style="enable-background:new 0 0 1606 500;" xml:space="preserve">
<style type="text/css">
	.st0{fill:#FFFFFF;}
	.st1{fill:#4A8AF9;}
	.st2{fill:none;}
	.st3{font-family:'AvenirNext-Regular';}
	.st4{font-size:211px;}
</style>
<g>
	<rect x="224.2" y="246.4" class="st0" width="5.4" height="4.1"/>
	<g>
		<path class="st1" d="M161.8,259.3c0-37.2,23.7-69,56.8-81l0.7-9.7c-38.5,12.2-66.4,48.3-66.4,90.8c0,39.1,23.7,72.7,57.4,87.4
			v-9.9C181.6,322.7,161.8,293.3,161.8,259.3z"/>
		<path class="st1" d="M280.9,169.9l0.7,9.9c30.9,13.1,52.7,43.8,52.7,79.4c0,32.4-18,60.6-44.4,75.4v10.2
			c31.6-15.5,53.4-48,53.4-85.5C343.2,218.3,317.2,183.3,280.9,169.9z"/>
	</g>
	<path class="st1" d="M310.4,259.9c0-24.9-15.1-46.3-36.6-55.6l-3.1-60.9h-7.5v-12.1l-6.3-4l-2.3-107.5h-9.4l-2.3,107.7l-6.1,3.8
		v12.1h-6.9l-3.7,60.8c-21.6,9.2-36.8,30.7-36.8,55.7c0,27.6,18.4,50.8,43.6,58.1l-0.5,10.3h-13.9v31.9h12.2l-7.3,135l53.5,0.2
		l-7.6-135.1h12v-31.9h-13.9L267,318C292.1,310.6,310.4,287.4,310.4,259.9z"/>
	<g>
		<path class="st1" d="M20.9,258.5c0-121.6,95.3-221.4,215.1-228.6l0.5-9.6c-125.4,7-225.2,111.2-225.2,238.2
			c0,119.2,87.9,218.3,202.3,235.9l0.7-9.6C104.8,467.6,20.9,372.7,20.9,258.5z"/>
		<path class="st1" d="M440.4,115c4.8-5.8,7.7-13.2,7.7-21.3c0-18.4-15-33.4-33.4-33.4c-8.1,0-15.5,2.9-21.3,7.7
			c-36.6-27.6-81.3-45-129.9-47.7l0.5,9.6c45.9,2.8,88.3,19.2,123,45.2c-3.6,5.3-5.7,11.7-5.7,18.6c0,18.4,15,33.4,33.4,33.4
			c6.9,0,13.3-2.1,18.6-5.7C462,159.7,479,207.1,479,258.5c0,114.2-84,209.1-193.4,226.3l0.8,9.6
			c114.4-17.6,202.3-116.6,202.3-235.9C488.6,204.7,470.6,155,440.4,115z"/>
	</g>
</g>
<rect x="541.2" y="214.2" class="st1" width="6" height="113.7"/>
<path class="st1" d="M632.6,211.4c-34.1,0-59.9,25.7-59.9,59.6c0,34.1,25.7,59.6,59.9,59.6s59.9-25.5,59.9-59.6
	C692.5,237.1,666.8,211.4,632.6,211.4z M632.6,325.1c-30.7,0-53.9-23.2-53.9-54.1S602,217,632.6,217c30.7,0,53.9,23.2,53.9,54.1
	S663.3,325.1,632.6,325.1z"/>
<path class="st1" d="M806,222.8c-12.9-10.5-28.3-11.4-36.3-11.4c-18,0-38,8.4-45.1,24.7h-0.4v-21.9h-6v113.7h6v-65.4
	c0-28.5,17.6-45.5,46.1-45.5c17.2,0,26.4,5.6,32.2,10.7c8.6,7.7,13.9,20.4,13.9,40.1v60.1h6v-60.1
	C822.5,247.4,817.2,232.2,806,222.8z"/>
<rect x="855.8" y="214.2" class="st1" width="6" height="113.7"/>
<path class="st1" d="M947.2,325.1c-29,0-53.9-21.9-53.9-54.1c0-15.4,6.4-30.5,15.7-38.8c11.8-10.5,22.3-15.2,38.4-15.2
	c22.3,0,42.1,12.4,49.8,34.1h6.7c-9-26.8-33.5-39.7-56.6-39.7c-34.5,0-59.9,26.2-59.9,59.9c0,35.4,26.8,59.4,59.9,59.4
	c27,0,48.5-15.4,56.4-38.6H997C991.4,309,972.9,325.1,947.2,325.1z"/>
<circle class="st1" cx="544.3" cy="178.9" r="6.5"/>
<circle class="st1" cx="858.8" cy="178.9" r="6.5"/>
<rect x="1050.2" y="172.9" class="st2" width="655.8" height="279.2"/>
<text transform="matrix(1 0 0 1 1050.217 332.3813)" class="st1 st3 st4">Berlin</text>
</svg>
